<?xml version="1.0" encoding="iso-8859-1"?>
<!-- Generator: Adobe Illustrator 19.0.0, SVG Export Plug-In . SVG Version: 6.00 Build 0)  -->
<svg version="1.1" id="Capa_1" xmlns="http://www.w3.org/2000/svg" xmlns:xlink="http://www.w3.org/1999/xlink" x="0px" y="0px"
	 viewBox="0 0 512.003 512.003" style="enable-background:new 0 0 512.003 512.003;" xml:space="preserve">
<g>
	<g>
		<g>
			<path d="M478.961,256.072c-42.044-5.436-73.463-23.893-98.654-41.233c-2.91-2.005-6.767-2.005-9.677,0
				c-25.19,17.34-56.61,35.797-98.654,41.233c-4.258,0.546-7.441,4.173-7.441,8.465v81.647c0,55.714,24.516,108.501,65.579,141.184
				c15.027,11.972,31.249,19.678,42.206,24.03c1.007,0.401,2.082,0.606,3.149,0.606s2.142-0.205,3.149-0.606
				c11.631-4.625,28.535-12.553,43.042-24.098c40.542-32.282,64.742-85.035,64.742-141.116v-81.647
				C486.402,260.245,483.219,256.618,478.961,256.072z M452.268,346.184c0,45.781-19.388,88.55-51.866,114.415
				c-5.717,4.54-12.988,9.062-21.009,13.09c-1.212,0.606-2.517,0.905-3.823,0.905c-1.348,0-2.688-0.316-3.908-0.947
				c-7.509-3.874-14.336-8.235-20.275-12.971c-33.007-26.283-52.719-69.077-52.719-114.492V292.5c0-3.866,2.594-7.245,6.323-8.243
				c22.187-5.939,43.785-15.411,66.031-28.962c2.739-1.655,6.153-1.655,8.892,0c22.246,13.551,43.844,23.023,66.031,28.962
				c3.729,0.998,6.323,4.378,6.323,8.243V346.184z"/>
			<path d="M315.735,298.954v47.232c0,40.252,17.297,78.072,46.285,101.137c4.045,3.234,8.619,6.281,13.611,9.079
				c5.419-2.944,10.257-6.067,14.148-9.165c28.442-22.639,45.423-60.425,45.423-101.052v-47.232
				c-20.079-5.965-39.714-14.66-59.733-26.428C355.449,284.294,335.814,292.989,315.735,298.954z"/>
			<path d="M247.468,264.533c0-12.826,9.6-23.748,22.323-25.387c17.365-2.244,32.768-7.066,46.694-13.082
				c1.289-3.806,2.509-7.714,3.541-11.802c8.055-6.468,12.774-16.154,12.774-26.53V153.6c0-8.218-3.063-16.188-8.533-22.4V85.811
				c0.486-4.693,2.355-32.64-17.852-55.689C288.889,10.138,260.448,0,221.868,0c-38.579,0-67.021,10.138-84.548,30.123
				c-20.207,23.049-18.338,50.995-17.852,55.689V131.2c-5.47,6.212-8.533,14.182-8.533,22.4v34.133
				c0,10.377,4.719,20.062,12.774,26.53c7.817,30.95,24.183,54.281,29.892,61.764v28.228c0,8.26-4.497,15.846-11.75,19.806
				l-76.143,41.523c-24.738,13.5-40.107,39.398-40.107,67.584v36.164c0,4.71,3.814,8.533,8.533,8.533H295.69
				c-30.601-35.243-48.222-82.449-48.222-131.686V264.533z"/>
		</g>
	</g>
</g>
<g>
</g>
<g>
</g>
<g>
</g>
<g>
</g>
<g>
</g>
<g>
</g>
<g>
</g>
<g>
</g>
<g>
</g>
<g>
</g>
<g>
</g>
<g>
</g>
<g>
</g>
<g>
</g>
<g>
</g>
</svg>
