<?xml version="1.0" encoding="iso-8859-1"?>
<!-- Generator: Adobe Illustrator 18.0.0, SVG Export Plug-In . SVG Version: 6.00 Build 0)  -->
<!DOCTYPE svg PUBLIC "-//W3C//DTD SVG 1.1//EN" "http://www.w3.org/Graphics/SVG/1.1/DTD/svg11.dtd">
<svg version="1.1" id="Capa_1" xmlns="http://www.w3.org/2000/svg" xmlns:xlink="http://www.w3.org/1999/xlink" x="0px" y="0px"
	 viewBox="0 0 347.047 347.047" style="enable-background:new 0 0 347.047 347.047;" xml:space="preserve">
<g>
	<path d="M283.473,63.574c-29.368-29.369-68.416-45.542-109.95-45.542c-41.533,0-80.581,16.174-109.95,45.542
		c-60.626,60.626-60.626,159.273,0,219.9c29.369,29.369,68.417,45.542,109.95,45.542c41.534,0,80.582-16.174,109.95-45.542
		C344.099,222.847,344.099,124.2,283.473,63.574z M317.835,168.018H285.05c-0.961-19.214-6.833-38.025-17.157-54.285l-9.287,5.896
		c9.207,14.5,14.489,31.254,15.438,48.389h-38.774c-1.267-14.482-7.505-27.931-17.907-38.332
		c-10.402-10.403-23.854-16.641-38.338-17.906V73.002c17.14,0.95,33.899,6.236,48.401,15.447l5.898-9.285
		c-16.263-10.33-35.078-16.207-54.3-17.169V29.144c36.531,1.359,70.681,16.218,96.672,42.208
		C302.467,98.123,316.506,132.873,317.835,168.018z M61.962,179.018c1.25,25.944,11.327,50.271,28.789,69.5l-23.207,23.207
		c-24.293-26.193-37.071-59.268-38.332-92.707H61.962z M168.023,224.22c-9.727-1.037-18.848-4.815-26.459-10.96l26.459-26.459
		V224.22z M179.024,186.803l26.458,26.458c-7.611,6.144-16.732,9.922-26.458,10.959V186.803z M133.752,125.975L106.327,98.55
		c15.734-14.09,35.653-22.984,56.685-25.176c1.669-0.174,3.34-0.292,5.011-0.382v38.787
		C155.359,112.886,143.49,117.802,133.752,125.975z M168.023,122.827v37.419l-26.459-26.459
		C149.175,127.642,158.297,123.864,168.023,122.827z M160.238,168.018h-37.381c1.018-9.449,4.657-18.664,10.929-26.451
		L160.238,168.018z M160.252,179.018l-26.464,26.464c-6.275-7.791-9.915-17.011-10.931-26.464H160.252z M133.752,221.073
		c9.738,8.173,21.607,13.089,34.271,14.195v38.796c-23.002-1.23-44.567-10.163-61.703-25.56L133.752,221.073z M179.024,235.269
		c12.664-1.107,24.533-6.023,34.271-14.195l27.432,27.432c-17.136,15.396-38.7,24.329-61.702,25.56V235.269z M186.794,179.018
		h37.427c-1.036,9.729-4.815,18.854-10.961,26.466L186.794,179.018z M179.024,168.018v-45.19
		c11.541,1.23,22.237,6.313,30.561,14.637c8.321,8.321,13.404,19.014,14.636,30.554H179.024z M168.023,61.985
		c-2.051,0.099-4.103,0.234-6.151,0.448c-23.534,2.453-45.815,12.461-63.337,28.325L75.321,67.543
		c25.452-23.627,57.999-37.109,92.703-38.399V61.985z M125.978,133.757c-8.358,9.979-13.085,21.984-14.17,34.261H72.98
		c1.229-23.003,10.161-44.568,25.556-61.702L125.978,133.757z M111.807,179.018c1.083,12.281,5.81,24.291,14.171,34.273
		l-27.435,27.435c-15.398-17.137-24.332-38.704-25.562-61.709H111.807z M98.53,256.296c19.228,17.462,43.552,27.538,69.494,28.787
		v32.82c-34.703-1.29-67.251-14.772-92.702-38.398L98.53,256.296z M179.024,285.083c25.941-1.25,50.266-11.326,69.493-28.787
		l23.209,23.209c-25.452,23.626-57.999,37.107-92.702,38.398V285.083z M221.073,213.296c8.175-9.74,13.092-21.611,14.197-34.278
		h38.783c-0.09,1.675-0.209,3.35-0.383,5.022c-2.195,21.027-11.09,40.942-25.179,56.674L221.073,213.296z M67.544,75.323
		l23.201,23.201c-17.46,19.227-27.535,43.552-28.783,69.494H29.213C30.476,134.583,43.254,101.513,67.544,75.323z M279.503,271.726
		l-23.219-23.22c15.861-17.52,25.87-39.796,28.327-63.324c0.214-2.053,0.35-4.109,0.449-6.165h32.776
		C316.574,212.457,303.796,245.533,279.503,271.726z"/>
	<path d="M296.223,50.824C263.45,18.05,219.874,0,173.524,0c-46.35,0-89.926,18.05-122.7,50.824
		c-67.657,67.657-67.657,177.743,0,245.4c32.774,32.774,76.35,50.824,122.7,50.824c46.35,0,89.926-18.05,122.699-50.824
		C363.88,228.567,363.88,118.481,296.223,50.824z M288.446,288.445c-30.697,30.697-71.511,47.602-114.922,47.602
		c-43.412,0-84.226-16.905-114.922-47.602c-63.368-63.368-63.368-166.475,0-229.843C89.298,27.905,130.112,11,173.524,11
		c43.411,0,84.225,16.905,114.922,47.602C351.813,121.97,351.813,225.078,288.446,288.445z"/>
	<circle cx="248.753" cy="98.296" r="9.75"/>
</g>
<g>
</g>
<g>
</g>
<g>
</g>
<g>
</g>
<g>
</g>
<g>
</g>
<g>
</g>
<g>
</g>
<g>
</g>
<g>
</g>
<g>
</g>
<g>
</g>
<g>
</g>
<g>
</g>
<g>
</g>
</svg>
