<svg xmlns="http://www.w3.org/2000/svg" width="89.03" height="9" viewBox="0 0 89.03 9"><defs><style>.a{fill:#fff;}.b{fill:none;stroke:#ed2024;stroke-miterlimit:10;}</style></defs><title>logo</title><path class="a" d="M0,9V0H4a1.91,1.91,0,0,1,1.4.59A1.94,1.94,0,0,1,6,2V2.5a1.87,1.87,0,0,1-.5,1.39A2.47,2.47,0,0,1,4,4.5a1.82,1.82,0,0,1,1.49.61A2.14,2.14,0,0,1,6,6.5V7a1.94,1.94,0,0,1-.59,1.41A1.91,1.91,0,0,1,4,9ZM2,4H3a1,1,0,0,0,.71-.29A1,1,0,0,0,4,3V2A1,1,0,0,0,3,1H2ZM2,8H3a1,1,0,0,0,.71-.3A1,1,0,0,0,4,7V6A.89.89,0,0,0,3,5H2Z"/><path class="a" d="M8,9V2A1.92,1.92,0,0,1,8.6.59,1.94,1.94,0,0,1,10,0h2a1.91,1.91,0,0,1,1.4.59A1.94,1.94,0,0,1,14,2V9H12V5H10V9Zm2-5h2V2a1,1,0,0,0-1-1,1,1,0,0,0-.7.29A1,1,0,0,0,10,2Z"/><path class="a" d="M16,9V0h4a1.91,1.91,0,0,1,1.4.59A1.94,1.94,0,0,1,22,2V7a1.94,1.94,0,0,1-.59,1.41A1.91,1.91,0,0,1,20,9Zm2-1h1a1,1,0,0,0,.71-.3A1,1,0,0,0,20,7V2a1,1,0,0,0-1-1H18Z"/><path class="a" d="M33,9V0h4a1.91,1.91,0,0,1,1.4.59A1.94,1.94,0,0,1,39,2V7a1.94,1.94,0,0,1-.59,1.41A1.91,1.91,0,0,1,37,9Zm2-1h1a1,1,0,0,0,.71-.3A1,1,0,0,0,37,7V2a1,1,0,0,0-1-1H35Z"/><path class="a" d="M43,0h2a1.91,1.91,0,0,1,1.4.59A1.94,1.94,0,0,1,47,2V7a1.94,1.94,0,0,1-.59,1.41A1.91,1.91,0,0,1,45,9H43a2,2,0,0,1-2-2V2A1.92,1.92,0,0,1,41.61.59,1.94,1.94,0,0,1,43,0Zm0,2V7a1,1,0,0,0,.29.71A1,1,0,0,0,44,8a1,1,0,0,0,.71-.3A1,1,0,0,0,45,7V2a1,1,0,0,0-1-1,1,1,0,0,0-.7.29A1,1,0,0,0,43,2Z"/><path class="a" d="M49,9V0h.47l4.27,4.26L58,0h1V9H57V3.5L53.52,7,50,3.5V9Z"/><path class="a" d="M61,9V2A1.92,1.92,0,0,1,61.61.59,1.94,1.94,0,0,1,63,0h2a1.91,1.91,0,0,1,1.4.59A1.94,1.94,0,0,1,67,2V9H65V5H63V9Zm2-5h2V2a1,1,0,0,0-1-1,1,1,0,0,0-.7.29A1,1,0,0,0,63,2Z"/><path class="a" d="M70,9V0h2V9Z"/><path class="a" d="M75,9V0h.47L81,5V0h1V9h-.46L76,4V9Z"/><path class="a" d="M89,2H88q-.13-1-.95-1a1.11,1.11,0,0,0-.79.25A1,1,0,0,0,86,2a1.07,1.07,0,0,0,.29.71l2.12,2.38A2.1,2.1,0,0,1,89,6.5V7a2,2,0,0,1-2,2H86a2.05,2.05,0,0,1-1.5-.5A2,2,0,0,1,84,7h1v.17a.71.71,0,0,0,.31.62A1.17,1.17,0,0,0,86,8a1,1,0,0,0,.76-.26A1.08,1.08,0,0,0,87,7a1,1,0,0,0-.29-.71L84.61,3.91A2.07,2.07,0,0,1,84,2.5V2A1.94,1.94,0,0,1,84.61.59,1.92,1.92,0,0,1,86,0h1Q88.91,0,89,2Z"/><path class="b" d="M30.8,4.5a3,3,0,1,1-3-3A3,3,0,0,1,30.8,4.5Zm-1-2.27-4,4.56"/></svg>