<svg xmlns="http://www.w3.org/2000/svg" width="451.73" height="56.3" viewBox="0 0 451.73 56.3"><title>Artboard 1</title><path d="M96.47,13.91h-4.6V9.31h4.6Zm0,5h-4.6v-4.6h4.6Zm0,5h-4.6v-4.6h4.6Zm0,5h-4.6v-4.6h4.6Zm0,5h-4.6v-4.6h4.6Zm0,5h-4.6v-4.6h4.6Zm0,5h-4.6v-4.6h4.6Zm5-30h-4.6V9.31h4.6Zm0,5h-4.6v-4.6h4.6Zm0,5h-4.6v-4.6h4.6Zm0,5h-4.6v-4.6h4.6Zm0,5h-4.6v-4.6h4.6Zm0,5h-4.6v-4.6h4.6Zm0,5h-4.6v-4.6h4.6Zm5-30h-4.6V9.31h4.6Zm0,15h-4.6v-4.6h4.6Zm0,15h-4.6v-4.6h4.6Zm5-30h-4.6V9.31h4.6Zm0,15h-4.6v-4.6h4.6Zm0,15h-4.6v-4.6h4.6Zm5-30h-4.6V9.31h4.6Zm0,15h-4.6v-4.6h4.6Zm0,15h-4.6v-4.6h4.6Zm5-30h-4.6V9.31h4.6Zm0,30h-4.6v-4.6h4.6Z" style="fill:#fff"/><path d="M131.47,13.91h-4.6V9.31h4.6Zm5,0h-4.6V9.31h4.6Zm5,0h-4.6V9.31h4.6Zm0,5h-4.6v-4.6h4.6Zm0,5h-4.6v-4.6h4.6Zm0,5h-4.6v-4.6h4.6Zm0,5h-4.6v-4.6h4.6Zm0,5h-4.6v-4.6h4.6Zm0,5h-4.6v-4.6h4.6Zm5-30h-4.6V9.31h4.6Zm0,5h-4.6v-4.6h4.6Zm0,5h-4.6v-4.6h4.6Zm0,5h-4.6v-4.6h4.6Zm0,5h-4.6v-4.6h4.6Zm0,5h-4.6v-4.6h4.6Zm0,5h-4.6v-4.6h4.6Zm5-30h-4.6V9.31h4.6Zm5,0h-4.6V9.31h4.6Z" style="fill:#fff"/><path d="M166.47,13.91h-4.6V9.31h4.6Zm0,5h-4.6v-4.6h4.6Zm0,5h-4.6v-4.6h4.6Zm0,5h-4.6v-4.6h4.6Zm0,5h-4.6v-4.6h4.6Zm0,5h-4.6v-4.6h4.6Zm0,5h-4.6v-4.6h4.6Zm5-30h-4.6V9.31h4.6Zm0,5h-4.6v-4.6h4.6Zm0,5h-4.6v-4.6h4.6Zm0,5h-4.6v-4.6h4.6Zm0,5h-4.6v-4.6h4.6Zm0,5h-4.6v-4.6h4.6Zm0,5h-4.6v-4.6h4.6Zm5-15h-4.6v-4.6h4.6Zm5,0h-4.6v-4.6h4.6Zm5-15h-4.6V9.31h4.6Zm0,5h-4.6v-4.6h4.6Zm0,5h-4.6v-4.6h4.6Zm0,5h-4.6v-4.6h4.6Zm0,5h-4.6v-4.6h4.6Zm0,5h-4.6v-4.6h4.6Zm0,5h-4.6v-4.6h4.6Zm5-30h-4.6V9.31h4.6Zm0,5h-4.6v-4.6h4.6Zm0,5h-4.6v-4.6h4.6Zm0,5h-4.6v-4.6h4.6Zm0,5h-4.6v-4.6h4.6Zm0,5h-4.6v-4.6h4.6Zm0,5h-4.6v-4.6h4.6Z" style="fill:#fff"/><path d="M211.47,38.91h-4.6v-4.6h4.6Zm0,5h-4.6v-4.6h4.6Zm5-5h-4.6v-4.6h4.6Zm0,5h-4.6v-4.6h4.6Z" style="fill:#fff"/><path d="M231.47,28.91h-4.6v-4.6h4.6Zm0,5h-4.6v-4.6h4.6Zm0,5h-4.6v-4.6h4.6Zm0,15h-4.6V49.3h4.6Zm5-30h-4.6v-4.6h4.6Zm0,5h-4.6v-4.6h4.6Zm0,5h-4.6v-4.6h4.6Zm0,5h-4.6v-4.6h4.6Zm0,5h-4.6v-4.6h4.6Zm0,10h-4.6V49.3h4.6Zm5-30h-4.6v-4.6h4.6Zm0,20h-4.6v-4.6h4.6Zm0,10h-4.6V49.3h4.6Zm5-30h-4.6v-4.6h4.6Zm0,20h-4.6v-4.6h4.6Zm0,10h-4.6V49.3h4.6Zm5-30h-4.6v-4.6h4.6Zm0,5h-4.6v-4.6h4.6Zm0,5h-4.6v-4.6h4.6Zm0,5h-4.6v-4.6h4.6Zm0,5h-4.6v-4.6h4.6Zm0,5h-4.6V44.3h4.6Zm0,5h-4.6V49.3h4.6Zm5-30h-4.6v-4.6h4.6Zm0,5h-4.6v-4.6h4.6Zm0,5h-4.6v-4.6h4.6Zm0,5h-4.6v-4.6h4.6Zm0,5h-4.6v-4.6h4.6Zm0,5h-4.6V44.3h4.6Z" style="fill:#fff"/><path d="M271.47,38.91h-4.6v-4.6h4.6Zm5-15h-4.6v-4.6h4.6Zm0,10h-4.6v-4.6h4.6Zm0,5h-4.6v-4.6h4.6Zm0,5h-4.6v-4.6h4.6Zm5-20h-4.6v-4.6h4.6Zm0,10h-4.6v-4.6h4.6Zm0,10h-4.6v-4.6h4.6Zm5-20h-4.6v-4.6h4.6Zm0,10h-4.6v-4.6h4.6Zm0,10h-4.6v-4.6h4.6Zm5-20h-4.6v-4.6h4.6Zm0,5h-4.6v-4.6h4.6Zm0,5h-4.6v-4.6h4.6Zm0,5h-4.6v-4.6h4.6Zm0,5h-4.6v-4.6h4.6Zm5-15h-4.6v-4.6h4.6Zm0,5h-4.6v-4.6h4.6Zm0,5h-4.6v-4.6h4.6Zm0,5h-4.6v-4.6h4.6Z" style="fill:#fff"/><path d="M311.47,8.91h-4.6V4.31h4.6Zm0,5h-4.6V9.31h4.6Zm0,5h-4.6v-4.6h4.6Zm0,5h-4.6v-4.6h4.6Zm0,5h-4.6v-4.6h4.6Zm0,5h-4.6v-4.6h4.6Zm0,5h-4.6v-4.6h4.6Zm5-30h-4.6V4.31h4.6Zm0,5h-4.6V9.31h4.6Zm0,5h-4.6v-4.6h4.6Zm0,5h-4.6v-4.6h4.6Zm0,5h-4.6v-4.6h4.6Zm0,5h-4.6v-4.6h4.6Zm0,5h-4.6v-4.6h4.6Zm0,5h-4.6v-4.6h4.6Zm5,0h-4.6v-4.6h4.6Zm5,0h-4.6v-4.6h4.6Z" style="fill:#fff"/><path d="M336.47,8.91h-4.6V4.31h4.6Zm0,5h-4.6V9.31h4.6Zm0,5h-4.6v-4.6h4.6Zm0,5h-4.6v-4.6h4.6Zm0,5h-4.6v-4.6h4.6Zm0,5h-4.6v-4.6h4.6Zm0,5h-4.6v-4.6h4.6Zm5-30h-4.6V4.31h4.6Zm0,5h-4.6V9.31h4.6Zm0,5h-4.6v-4.6h4.6Zm0,5h-4.6v-4.6h4.6Zm0,5h-4.6v-4.6h4.6Zm0,5h-4.6v-4.6h4.6Zm0,5h-4.6v-4.6h4.6Zm0,5h-4.6v-4.6h4.6Zm5,0h-4.6v-4.6h4.6Zm5,0h-4.6v-4.6h4.6Z" style="fill:#fff"/><path d="M361.47,28.91h-4.6v-4.6h4.6Zm0,5h-4.6v-4.6h4.6Zm0,5h-4.6v-4.6h4.6Zm5-15h-4.6v-4.6h4.6Zm0,5h-4.6v-4.6h4.6Zm0,5h-4.6v-4.6h4.6Zm0,5h-4.6v-4.6h4.6Zm0,5h-4.6v-4.6h4.6Zm5-20h-4.6v-4.6h4.6Zm0,10h-4.6v-4.6h4.6Zm0,10h-4.6v-4.6h4.6Zm5-20h-4.6v-4.6h4.6Zm0,10h-4.6v-4.6h4.6Zm0,10h-4.6v-4.6h4.6Zm5-20h-4.6v-4.6h4.6Zm0,5h-4.6v-4.6h4.6Zm0,5h-4.6v-4.6h4.6Zm0,10h-4.6v-4.6h4.6Zm5-15h-4.6v-4.6h4.6Zm0,5h-4.6v-4.6h4.6Zm0,10h-4.6v-4.6h4.6Z" style="fill:#fff"/><path d="M401.47,23.91h-4.6v-4.6h4.6Zm0,5h-4.6v-4.6h4.6Zm0,5h-4.6v-4.6h4.6Zm0,5h-4.6v-4.6h4.6Zm0,5h-4.6v-4.6h4.6Zm5-15h-4.6v-4.6h4.6Zm0,5h-4.6v-4.6h4.6Zm0,5h-4.6v-4.6h4.6Zm0,5h-4.6v-4.6h4.6Zm5-20h-4.6v-4.6h4.6Zm5,0h-4.6v-4.6h4.6Z" style="fill:#fff"/><path d="M426.47,23.91h-4.6v-4.6h4.6Zm0,5h-4.6v-4.6h4.6Zm0,5h-4.6v-4.6h4.6Zm0,20h-4.6V49.3h4.6Zm5-30h-4.6v-4.6h4.6Zm0,5h-4.6v-4.6h4.6Zm0,5h-4.6v-4.6h4.6Zm0,5h-4.6v-4.6h4.6Zm0,15h-4.6V49.3h4.6Zm5-15h-4.6v-4.6h4.6Zm0,5h-4.6v-4.6h4.6Zm0,5h-4.6V44.3h4.6Zm5-5h-4.6v-4.6h4.6Zm5-5h-4.6v-4.6h4.6Zm5-15h-4.6v-4.6h4.6Zm0,5h-4.6v-4.6h4.6Zm0,5h-4.6v-4.6h4.6Z" style="fill:#fff"/><path d="M4.41,44.1v4.41h8.82v4.41H44.1V48.51H57.33V44.1h4.41V39.69h4.41V35.28h4.41V13.23H66.16V8.82H61.75V4.41H57.33V0H30.87V4.41H26.46V8.82H22.05v4.41H17.64v4.41H13.23v4.41H8.82v4.41H4.41v4.41H0V44.1ZM17.64,22.05h4.41V17.64h4.41V13.23h8.82V26.46H30.87v4.41H17.64Z" style="fill:#cd955e"/><polygon points="52.92 17.64 52.92 13.23 61.74 13.23 61.74 17.64 66.16 17.64 66.16 22.05 57.34 22.05 57.34 17.64 52.92 17.64" style="fill:#f9ed24"/><polygon points="4.41 44.1 4.41 39.69 8.82 39.69 8.82 35.28 17.64 35.28 17.64 39.69 13.23 39.69 13.23 44.1 4.41 44.1"/><polygon points="52.92 39.69 52.92 26.63 57.34 26.63 57.34 30.87 61.74 30.87 61.74 35.28 57.34 35.28 57.34 39.69 52.92 39.69" style="fill:#6abd45"/><polygon points="22.05 48.51 22.05 44.1 26.46 44.1 26.46 39.69 30.87 39.69 30.87 48.51 22.05 48.51" style="fill:#ed2024"/><polygon points="39.69 44.1 39.69 35.28 44.1 35.28 44.1 39.69 48.51 39.69 48.51 44.1 39.69 44.1" style="fill:#3b54a5"/><rect x="35.28" y="4.41" width="8.82" height="8.82" style="fill:#fff"/></svg>